<svg width="21" height="22" viewBox="0 0 21 22" fill="none" xmlns="http://www.w3.org/2000/svg">
<path d="M13.5596 11.4246C13.9266 11.4246 14.2241 11.1271 14.2241 10.7601C14.2241 10.3931 13.9266 10.0956 13.5596 10.0956C13.1926 10.0956 12.8951 10.3931 12.8951 10.7601C12.8951 11.1271 13.1926 11.4246 13.5596 11.4246Z" fill="black" fill-opacity="0.75"/>
<path d="M5.58559 3.20609H12.2369V2.03381H4.40704V6.54741H5.58559V3.20609Z" fill="black" fill-opacity="0.75"/>
<path d="M11.0583 0.171997V21.342L20.2046 17.9317V1.90848L11.0583 0.171997ZM19.026 17.1105L12.2306 19.6431V1.58876L19.026 2.88015V17.1105Z" fill="black" fill-opacity="0.75"/>
<path d="M0 10.3151L3.99327 8.00812V9.20547H7.22801V11.4247H3.99327V12.622L0 10.3151Z" fill="black" fill-opacity="0.75"/>
<path d="M10.5129 17.424H5.58559V14.0826H4.40704V18.6025H10.5129V17.424Z" fill="black" fill-opacity="0.75"/>
</svg>
