<svg width="26" height="27" viewBox="0 0 26 27" fill="none" xmlns="http://www.w3.org/2000/svg">
<path d="M17.2937 14.3515C17.7618 14.3515 18.1412 13.9721 18.1412 13.504C18.1412 13.0359 17.7618 12.6565 17.2937 12.6565C16.8257 12.6565 16.4462 13.0359 16.4462 13.504C16.4462 13.9721 16.8257 14.3515 17.2937 14.3515Z" fill="black" fill-opacity="0.75"/>
<path d="M7.12381 3.86975H15.6068V2.37463H5.6207V8.13122H7.12381V3.86975Z" fill="black" fill-opacity="0.75"/>
<path d="M14.1036 0V27L25.7687 22.6506V2.21469L14.1036 0ZM24.2656 21.6032L15.5988 24.8333V1.80693L24.2656 3.45395V21.6032Z" fill="black" fill-opacity="0.75"/>
<path d="M0 12.9363L5.09298 9.99402V11.5211H9.21854V14.3514H5.09298V15.8785L0 12.9363Z" fill="black" fill-opacity="0.75"/>
<path d="M13.4081 22.0029H7.12381V17.7415H5.6207V23.506H13.4081V22.0029Z" fill="black" fill-opacity="0.75"/>
</svg>
