<svg width="28" height="26" viewBox="0 0 28 26" fill="none" xmlns="http://www.w3.org/2000/svg">
<g clip-path="url(#clip0_151_255)">
<path d="M5.99999 24C7.59999 24.7 9.59999 24.7 11.1 24C12.7 23.3 14.7 23.3 16.2 24C17.8 24.7 19.8 24.7 21.3 24M13.7 0.799988V3.39999M3.29999 13.7H0.799988M6.29999 6.29999L4.49999 4.49999M21.1 6.29999L22.9 4.49999M26.7 13.7H24.1M7.19999 13.7C7.19999 10.1 10.1 7.19999 13.7 7.19999C17.3 7.19999 20.2 10.1 20.2 13.7M0.899988 19.4C2.49999 18.7 4.49999 18.7 5.99999 19.4C7.59999 20.1 9.59999 20.1 11.1 19.4C12.7 18.7 14.7 18.7 16.2 19.4C17.8 20.1 19.8 20.1 21.3 19.4C22.9 18.7 24.9 18.7 26.4 19.4" stroke="black" stroke-opacity="0.75" stroke-width="1.5" stroke-linecap="round" stroke-linejoin="round"/>
</g>
<defs>
<clipPath id="clip0_151_255">
<rect width="27.4" height="25.3" fill="white"/>
</clipPath>
</defs>
</svg>
