<svg width="22" height="24" viewBox="0 0 22 24" fill="none" xmlns="http://www.w3.org/2000/svg">
<path d="M14.7645 12.2526C15.1641 12.2526 15.4881 11.9286 15.4881 11.529C15.4881 11.1294 15.1641 10.8055 14.7645 10.8055C14.3649 10.8055 14.041 11.1294 14.041 11.529C14.041 11.9286 14.3649 12.2526 14.7645 12.2526Z" fill="#FF0000" fill-opacity="0.75"/>
<path d="M6.08192 3.30373H13.3242V2.02728H4.79865V6.94196H6.08192V3.30373Z" fill="#FF0000" fill-opacity="0.75"/>
<path d="M12.0409 0V23.0512L21.9999 19.3379V1.89079L12.0409 0ZM20.7167 18.4437L13.3173 21.2014V1.54266L20.7167 2.94881V18.4437Z" fill="#FF0000" fill-opacity="0.75"/>
<path d="M0 11.0444L4.34812 8.53241V9.83616H7.87031V12.2525H4.34812V13.5563L0 11.0444Z" fill="#FF0000" fill-opacity="0.75"/>
<path d="M11.4471 18.785H6.08192V15.1468H4.79865V20.0683H11.4471V18.785Z" fill="#FF0000" fill-opacity="0.75"/>
</svg>
