<svg width="22" height="22" viewBox="0 0 22 22" fill="none" xmlns="http://www.w3.org/2000/svg">
<g clip-path="url(#clip0_151_236)">
<path d="M21.0833 16.5H18.3333V13.75C18.3333 13.5069 18.2368 13.2737 18.0649 13.1018C17.893 12.9299 17.6598 12.8334 17.4167 12.8334C17.1736 12.8334 16.9404 12.9299 16.7685 13.1018C16.5966 13.2737 16.5 13.5069 16.5 13.75V16.5H13.75C13.5069 16.5 13.2737 16.5966 13.1018 16.7685C12.9299 16.9404 12.8333 17.1736 12.8333 17.4167C12.8333 17.6598 12.9299 17.893 13.1018 18.0649C13.2737 18.2368 13.5069 18.3334 13.75 18.3334H16.5V21.0834C16.5 21.3265 16.5966 21.5596 16.7685 21.7315C16.9404 21.9034 17.1736 22 17.4167 22C17.6598 22 17.893 21.9034 18.0649 21.7315C18.2368 21.5596 18.3333 21.3265 18.3333 21.0834V18.3334H21.0833C21.3265 18.3334 21.5596 18.2368 21.7315 18.0649C21.9034 17.893 22 17.6598 22 17.4167C22 17.1736 21.9034 16.9404 21.7315 16.7685C21.5596 16.5966 21.3265 16.5 21.0833 16.5ZM10.0833 6.41669V10.6205L7.60193 13.1019C7.51438 13.1865 7.44454 13.2876 7.3965 13.3995C7.34846 13.5113 7.32317 13.6316 7.32212 13.7533C7.32106 13.875 7.34425 13.9957 7.39034 14.1084C7.43643 14.2211 7.5045 14.3234 7.59057 14.4095C7.67663 14.4955 7.77898 14.5636 7.89164 14.6097C8.00429 14.6558 8.125 14.679 8.24671 14.6779C8.36843 14.6769 8.48871 14.6516 8.60055 14.6035C8.71239 14.5555 8.81354 14.4857 8.8981 14.3981L11.6481 11.6481C11.82 11.4762 11.9166 11.2431 11.9167 11V6.41669C11.9167 6.17357 11.8201 5.94042 11.6482 5.76851C11.4763 5.5966 11.2431 5.50002 11 5.50002C10.7569 5.50002 10.5237 5.5966 10.3518 5.76851C10.1799 5.94042 10.0833 6.17357 10.0833 6.41669ZM13.5007 19.822C11.5513 20.3714 9.47484 20.2588 7.59639 19.5017C5.71793 18.7447 4.14361 17.386 3.11998 15.6384C2.09636 13.8909 1.68125 11.8532 1.93966 9.84445C2.19808 7.83573 3.11542 5.96944 4.54802 4.53787C5.98063 3.10631 7.84758 2.19032 9.85649 1.93336C11.8654 1.6764 13.9028 2.09299 15.6496 3.11788C17.3964 4.14277 18.754 5.71808 19.5097 7.59708C20.2653 9.47609 20.3765 11.5527 19.8257 13.5016C19.7884 13.6188 19.7751 13.7422 19.7865 13.8647C19.7979 13.9871 19.8339 14.106 19.8922 14.2142C19.9505 14.3225 20.03 14.4179 20.1259 14.4948C20.2219 14.5717 20.3323 14.6285 20.4507 14.6618C20.569 14.6951 20.6929 14.7043 20.8148 14.6888C20.9368 14.6733 21.0544 14.6334 21.1606 14.5715C21.2669 14.5096 21.3596 14.427 21.4332 14.3286C21.5069 14.2301 21.56 14.1178 21.5893 13.9984C22.2506 11.658 22.1169 9.16428 21.2091 6.90798C20.3013 4.65168 18.6706 2.76025 16.5726 1.53C14.4747 0.29975 12.0278 -0.199817 9.61551 0.109558C7.20318 0.418933 4.96162 1.51977 3.24198 3.23962C1.52234 4.95947 0.421768 7.20117 0.112685 9.61353C-0.196399 12.0259 0.303464 14.4727 1.53397 16.5705C2.76447 18.6683 4.65609 20.2987 6.9125 21.2063C9.16891 22.1138 11.6626 22.2473 14.003 21.5857C14.1214 21.5553 14.2325 21.5015 14.3298 21.4275C14.427 21.3535 14.5085 21.2608 14.5695 21.1548C14.6304 21.0488 14.6695 20.9318 14.6845 20.8105C14.6995 20.6892 14.6901 20.5661 14.6569 20.4485C14.6236 20.3309 14.5672 20.2211 14.4909 20.1256C14.4146 20.0301 14.3199 19.9509 14.2125 19.8925C14.1052 19.8341 13.9872 19.7978 13.8656 19.7857C13.7439 19.7736 13.6211 19.786 13.5043 19.822H13.5007Z" fill="black" fill-opacity="0.75"/>
</g>
<defs>
<clipPath id="clip0_151_236">
<rect width="22" height="22" fill="white"/>
</clipPath>
</defs>
</svg>
