<svg width="20" height="22" viewBox="0 0 20 22" fill="none" xmlns="http://www.w3.org/2000/svg">
<g clip-path="url(#clip0_151_240)">
<path fill-rule="evenodd" clip-rule="evenodd" d="M10.0063 1.16791C7.40788 1.16791 5.30152 3.27428 5.30152 5.87274C5.30152 8.4712 7.40788 10.5776 10.0063 10.5776C12.6048 10.5776 14.7112 8.4712 14.7112 5.87274C14.7112 3.27428 12.6048 1.16791 10.0063 1.16791ZM4.12506 5.87274C4.12506 2.62465 6.75815 -0.00854492 10.0063 -0.00854492C13.2545 -0.00854492 15.8876 2.62455 15.8876 5.87274C15.8876 9.12093 13.2545 11.754 10.0063 11.754C6.75815 11.754 4.12506 9.12093 4.12506 5.87274Z" fill="black" fill-opacity="0.75"/>
<path fill-rule="evenodd" clip-rule="evenodd" d="M1.2038 19.9875H18.8083C18.5057 15.3895 14.6804 11.7541 10.0058 11.7541C5.33119 11.7541 1.50626 15.3896 1.2033 19.9875H1.2038ZM0.00833763 20.5756C0.00833763 15.0538 4.48456 10.5774 10.0061 10.5774C15.5276 10.5774 20.0038 15.0536 20.0038 20.5756C20.0038 20.9003 19.7405 21.1636 19.4158 21.1636H0.595912C0.271204 21.1636 0.00793457 20.9003 0.00793457 20.5756H0.00833763Z" fill="black" fill-opacity="0.75"/>
</g>
<defs>
<clipPath id="clip0_151_240">
<rect width="20" height="21.172" fill="white"/>
</clipPath>
</defs>
</svg>
